<svg width="35" height="36" viewBox="0 0 35 36" fill="none" xmlns="http://www.w3.org/2000/svg">
<circle cx="17.5" cy="18" r="17.5" fill="white"/>
<path d="M17.5643 25.8751C17.4781 25.6656 17.4421 25.4346 17.4355 25.1906C17.4437 25.4362 17.4799 25.6672 17.5643 25.8751Z" fill="#1A1A1A"/>
<path d="M16.6274 25.9259C16.7182 26.129 16.8353 26.3193 17.0032 26.4867C17.3687 26.8524 17.8254 27.0363 18.3704 27.0363H18.3723C17.8278 27.0347 17.374 26.8524 17.0062 26.4867C16.8369 26.3177 16.7182 26.1274 16.6274 25.9259Z" fill="#1A1A1A"/>
<path d="M11.2566 26.4891C11.4237 26.319 11.5451 26.1277 11.6358 25.9243C11.6438 25.9049 11.6616 25.8927 11.6678 25.8751C11.7537 25.6664 11.7905 25.4365 11.7963 25.1964C11.7979 25.1789 11.8067 25.1631 11.8067 25.1421V22.1762C11.8067 21.6694 11.622 21.2274 11.2563 20.8502C10.8888 20.4712 10.4496 20.2836 9.9418 20.2836C9.39593 20.2836 8.94135 20.4712 8.5738 20.8502C8.20599 21.2274 8.02448 21.6692 8.02448 22.1762V25.1437C8.02448 25.6718 8.20599 26.1189 8.5738 26.4891C8.93417 26.8468 9.38316 27.0256 9.91652 27.031C10.3844 27.0275 10.7764 26.8625 11.1123 26.5836C11.1573 26.5487 11.2129 26.5311 11.2566 26.4891Z" fill="#D16430"/>
<path d="M27 25.144V15.5158C27 15.008 26.8159 14.5662 26.4507 14.1891C26.0837 13.8119 25.6443 13.6262 25.137 13.6262C24.5906 13.6262 24.1355 13.8119 23.7669 14.1891C23.3999 14.5662 23.2173 15.008 23.2173 15.5158V25.1421C23.2173 25.1615 23.2266 25.1754 23.2266 25.1913C23.2327 25.4333 23.2684 25.6648 23.3552 25.8753C23.3621 25.8929 23.3804 25.9067 23.3884 25.9262C23.48 26.1279 23.5989 26.319 23.7669 26.4893C24.1355 26.8542 24.5885 27.0347 25.1335 27.0365C25.4117 27.0365 25.6637 26.97 25.9003 26.8596C26.0973 26.7701 26.2836 26.6525 26.4507 26.4896C26.8159 26.1191 27 25.6717 27 25.144Z" fill="#349999"/>
<path d="M16.1723 26.4891C16.2091 26.5242 16.2591 26.5365 16.2977 26.5716C16.6389 26.8628 17.0426 27.0294 17.5254 27.0328C18.046 27.0294 18.4884 26.8505 18.8517 26.4891C19.2187 26.1192 19.4028 25.663 19.4028 25.1192V19.4841C19.4028 18.9789 19.2187 18.5353 18.8543 18.1582C18.4857 17.7837 18.0471 17.5942 17.5398 17.5942C16.9931 17.5942 16.5375 17.7837 16.1705 18.1582C15.8027 18.5353 15.6212 18.9789 15.6212 19.4841V25.1192C15.6214 25.663 15.8045 26.1192 16.1723 26.4891Z" fill="#147CA9"/>
<path d="M24.7681 10.7795C24.6273 10.2655 24.3207 9.88148 23.8408 9.62545C23.7272 9.56583 23.6141 9.50435 23.4962 9.45351C22.8191 9.14931 22.0949 9 21.3239 9C20.6372 9 19.999 9.12376 19.4031 9.36116C19.3605 9.37873 19.3171 9.39177 19.2745 9.40933C18.6448 9.68214 18.0577 10.0337 17.5118 10.4662C16.9471 10.0164 16.349 9.65845 15.7201 9.39363C15.693 9.38299 15.6645 9.3742 15.6374 9.36382C15.6318 9.36116 15.6259 9.3593 15.6211 9.3577C15.0183 9.1219 14.379 9 13.6998 9C12.9102 9 12.1673 9.15862 11.4711 9.4796C10.7735 9.79951 10.1688 10.2213 9.65145 10.7494C9.13272 11.2756 8.72791 11.8877 8.43648 12.5839C8.17379 13.2118 8.03566 13.8564 8.01038 14.5186C8.00772 14.5553 8 14.5923 8 14.629V14.7307V17.6C8 18.127 8.18364 18.5752 8.55652 18.9417C8.86817 19.2467 9.24797 19.4135 9.68551 19.4625C9.76269 19.4729 9.83801 19.4851 9.91786 19.4851C10.003 19.4851 10.0831 19.4748 10.1643 19.4625C10.5313 19.4133 10.851 19.2688 11.128 19.0399C11.1759 19.0024 11.2308 18.9864 11.2757 18.9417C11.445 18.7732 11.5669 18.5829 11.6603 18.3785C11.6683 18.3609 11.6867 18.3487 11.6923 18.3293C11.7655 18.1557 11.7974 17.9662 11.811 17.768C11.8144 17.7286 11.8213 17.69 11.8224 17.6514C11.8237 17.6322 11.8328 17.6173 11.8328 17.5979V14.7137C11.8802 14.275 12.0502 13.8971 12.3611 13.586C12.7289 13.2195 13.1736 13.0369 13.6998 13.0369C14.2465 13.0369 14.7016 13.2192 15.0697 13.586C15.4367 13.9551 15.6214 14.2585 15.6214 14.8031L15.6222 14.8049C15.6257 15.3713 15.8085 15.8424 16.1734 16.2272C16.2093 16.2693 16.3506 16.3545 16.3773 16.3763C16.7017 16.6419 17.0783 16.7971 17.5246 16.7989C17.9648 16.7971 18.3454 16.6549 18.673 16.3832C18.7332 16.334 18.7949 16.2866 18.8514 16.227C19.2149 15.8421 19.398 15.371 19.4012 14.8063L19.4031 14.8028C19.4031 14.2583 19.5902 13.9549 19.9673 13.5857C20.3447 13.2192 20.7956 13.0367 21.3239 13.0367C21.5349 13.0367 21.7308 13.0734 21.9163 13.1322L21.9509 13.1516C22.0531 13.2086 22.1574 13.2482 22.261 13.285C22.645 13.4157 23.0344 13.4157 23.4326 13.2823C23.4855 13.2631 23.5212 13.2262 23.5715 13.207C23.9973 13.0244 24.3462 12.7245 24.5892 12.2765C24.8463 11.7898 24.9073 11.2918 24.7681 10.7795Z" fill="url(#paint0_linear_110_49)"/>
<defs>
<linearGradient id="paint0_linear_110_49" x1="7.99979" y1="14.2431" x2="24.8408" y2="14.2431" gradientUnits="userSpaceOnUse">
<stop offset="1" stop-color="#686867"/>
</linearGradient>
</defs>
</svg>
