<svg width="35" height="36" viewBox="0 0 35 36" fill="none" xmlns="http://www.w3.org/2000/svg">
<circle cx="17.5" cy="18" r="17.5" fill="#06ADEF"/>
<path d="M15.3939 14.9064C16.2662 15.4292 17.2075 15.8269 18.1903 16.0881L19.4774 16.521C19.8763 16.6492 20.2671 16.8016 20.6474 16.9773L21.0569 17.1412L24.7426 13.631H25L14.9025 27.9524L10 23.5296L12.5273 20.9789L14.8674 23.1201L18.3775 19.7387C17.8744 19.5515 17.2894 19.3642 16.5874 19.1653C15.2149 18.822 13.9151 18.2355 12.7496 17.4337C12.1635 16.9822 11.6962 16.3945 11.3884 15.7217C11.0805 15.0489 10.9413 14.3112 10.9828 13.5725C10.9493 12.8054 11.0933 12.0409 11.4039 11.3387C11.7144 10.6365 12.183 10.0155 12.773 9.52415C13.9958 8.50575 15.5464 7.96532 17.1373 8.00309C18.368 7.96657 19.5867 8.25438 20.671 8.83762C21.7553 9.42087 22.6672 10.279 23.3151 11.326L20.7059 13.982C20.4202 13.275 19.9254 12.672 19.2876 12.2538C18.6499 11.8356 17.8997 11.6221 17.1373 11.6419C15.6045 11.5951 14.6802 12.3674 14.6802 13.4672C14.676 13.7466 14.7386 14.0229 14.8627 14.2732C14.9869 14.5236 15.169 14.7406 15.3939 14.9064ZM24.3448 21.8447C24.3741 22.6335 24.2179 23.4181 23.8887 24.1355C23.5594 24.8529 23.0664 25.4829 22.4493 25.975C21.1073 26.999 19.4567 27.5354 17.7691 27.4961L23.6193 19.3057C24.0829 20.0724 24.3333 20.9489 24.3448 21.8447Z" fill="white"/>
</svg>
