<svg width="20" height="21" viewBox="0 0 20 21" fill="none" xmlns="http://www.w3.org/2000/svg">
<g clip-path="url(#clip0_117_26)">
<path d="M10 0.322571C4.47984 0.322571 0 4.80241 0 10.3226C0 15.8427 4.47984 20.3226 10 20.3226C15.5202 20.3226 20 15.8427 20 10.3226C20 4.80241 15.5202 0.322571 10 0.322571Z" fill="#1ED760"/>
<path d="M16.3952 9.31854C16.1855 9.31854 16.0565 9.26612 15.875 9.16128C13.004 7.44757 7.87097 7.03628 4.54839 7.9637C4.40323 8.00402 4.22177 8.06854 4.02823 8.06854C3.49597 8.06854 3.08871 7.65322 3.08871 7.11693C3.08871 6.56854 3.42742 6.25806 3.79032 6.15322C5.20968 5.73789 6.79839 5.54031 8.52823 5.54031C11.4718 5.54031 14.5565 6.15322 16.8105 7.46773C17.125 7.64918 17.3306 7.89918 17.3306 8.37902C17.3306 8.92741 16.8871 9.31854 16.3952 9.31854ZM15.1452 12.3911C14.9355 12.3911 14.7944 12.2984 14.6492 12.2218C12.129 10.7298 8.37097 10.129 5.02823 11.0363C4.83468 11.0887 4.72984 11.1411 4.54839 11.1411C4.11694 11.1411 3.76613 10.7903 3.76613 10.3589C3.76613 9.92741 3.97581 9.64112 4.39113 9.52418C5.5121 9.20967 6.65726 8.9758 8.33468 8.9758C10.9516 8.9758 13.4798 9.62499 15.4718 10.8105C15.7984 11.004 15.9274 11.254 15.9274 11.6048C15.9234 12.0403 15.5847 12.3911 15.1452 12.3911ZM14.0605 15.0363C13.8911 15.0363 13.7863 14.9839 13.629 14.8911C11.1129 13.375 8.18548 13.3105 5.29435 13.9032C5.1371 13.9435 4.93145 14.0081 4.81452 14.0081C4.42339 14.0081 4.17742 13.6976 4.17742 13.371C4.17742 12.9556 4.42339 12.7581 4.72581 12.6935C8.02823 11.9637 11.4032 12.0282 14.2823 13.75C14.5282 13.9072 14.6734 14.0484 14.6734 14.4153C14.6734 14.7822 14.3871 15.0363 14.0605 15.0363Z" fill="black"/>
</g>
<defs>
<clipPath id="clip0_117_26">
<rect width="20" height="20.6452" fill="white"/>
</clipPath>
</defs>
</svg>
