<svg width="35" height="36" viewBox="0 0 35 36" fill="none" xmlns="http://www.w3.org/2000/svg">
<circle cx="17.5" cy="18" r="17.5" fill="#1348C2"/>
<g clip-path="url(#clip0_110_4)">
<path d="M27.4171 10.8928C27.7746 10.5864 28.2342 10.5864 28.6427 10.8418C29.0001 11.0971 29.1533 11.5566 29.0001 12.0162L24.5576 24.8332C24.4554 25.1907 24.149 25.446 23.7916 25.5481C23.6895 25.5992 23.5873 25.5992 23.4852 25.5992C23.2299 25.5992 22.9746 25.4971 22.7703 25.3439L20.0129 23.1481C19.6554 22.8417 19.6044 22.28 19.8597 21.9226C20.115 21.5651 20.7278 21.463 21.0852 21.7694L23.1788 23.4545L26.498 13.9056L12.3022 25.3439C11.9959 25.5992 11.6384 25.6502 11.281 25.5481C10.9235 25.446 10.6171 25.1907 10.515 24.8332L6.07246 12.0162C5.91927 11.5566 6.07246 11.0971 6.4299 10.8418C6.83841 10.5864 7.29799 10.5864 7.65544 10.8928L12.149 14.5183L17.0001 10.5864C17.3065 10.3311 17.7661 10.3311 18.0725 10.5864L20.4214 12.5269C20.7788 12.8332 20.8299 13.3949 20.5746 13.7524C20.2682 14.1098 19.7065 14.212 19.349 13.9056L17.5107 12.4247L12.6597 16.3056C12.3533 16.5609 11.8937 16.5609 11.5873 16.3056L8.57458 13.9056L11.8937 23.4545L27.4171 10.8928Z" fill="white"/>
</g>
<defs>
<clipPath id="clip0_110_4">
<rect width="24" height="16.3404" fill="white" transform="translate(5 10)"/>
</clipPath>
</defs>
</svg>
